<svg xmlns="http://www.w3.org/2000/svg" width="500" height="500" viewBox="0 0 500 500" version="1.1"><path d="M 274 152 C 272.075 153.054, 270.950 153.916, 271.500 153.916 C 272.050 153.916, 274.075 153.054, 276 152 C 277.925 150.946, 279.050 150.084, 278.500 150.084 C 277.950 150.084, 275.925 150.946, 274 152 M 414.888 183.445 C 414.455 183.878, 394.057 185.519, 352 188.504 C 340.725 189.304, 318.900 190.884, 303.500 192.015 C 273.840 194.193, 244.214 196.301, 219.500 197.990 C 211.250 198.554, 203.198 199.239, 201.607 199.511 C 200.016 199.784, 198.126 199.519, 197.407 198.923 C 196.268 197.978, 204.950 216.914, 222.200 253 C 224.960 258.775, 227.851 264.962, 228.623 266.750 C 229.395 268.538, 230.546 270, 231.181 270 C 232.450 270, 243.833 264.807, 275 250.009 C 286.275 244.656, 302.025 237.230, 310 233.506 C 317.975 229.782, 331.925 223.248, 341 218.986 C 373.677 203.640, 405.615 188.650, 411.500 185.898 C 414.800 184.355, 417.012 183.071, 416.417 183.046 C 415.821 183.021, 415.133 183.200, 414.888 183.445" stroke="none" fill="#39a5bd" fill-rule="evenodd"/><path d="M 306.084 29.500 C 306.084 30.050, 306.946 32.075, 308 34 C 309.054 35.925, 309.916 37.050, 309.916 36.500 C 309.916 35.950, 309.054 33.925, 308 32 C 306.946 30.075, 306.084 28.950, 306.084 29.500 M 313.071 44.500 C 313.071 45.050, 313.714 46.625, 314.500 48 C 315.286 49.375, 315.929 50.050, 315.929 49.500 C 315.929 48.950, 315.286 47.375, 314.500 46 C 313.714 44.625, 313.071 43.950, 313.071 44.500 M 236 51.500 C 233.525 52.825, 231.950 53.910, 232.500 53.910 C 233.050 53.910, 235.525 52.825, 238 51.500 C 240.475 50.175, 242.050 49.090, 241.500 49.090 C 240.950 49.090, 238.475 50.175, 236 51.500 M 219 59.500 C 217.625 60.286, 216.950 60.929, 217.500 60.929 C 218.050 60.929, 219.625 60.286, 221 59.500 C 222.375 58.714, 223.050 58.071, 222.500 58.071 C 221.950 58.071, 220.375 58.714, 219 59.500 M 202 67.500 C 200.625 68.286, 199.950 68.929, 200.500 68.929 C 201.050 68.929, 202.625 68.286, 204 67.500 C 205.375 66.714, 206.050 66.071, 205.500 66.071 C 204.950 66.071, 203.375 66.714, 202 67.500 M 188 74 C 186.075 75.054, 184.860 75.935, 185.300 75.958 C 186.359 76.014, 192 73.081, 192 72.474 C 192 71.820, 191.941 71.842, 188 74 M 155 89.500 C 153.625 90.286, 152.950 90.929, 153.500 90.929 C 154.050 90.929, 155.625 90.286, 157 89.500 C 158.375 88.714, 159.050 88.071, 158.500 88.071 C 157.950 88.071, 156.375 88.714, 155 89.500 M 148.360 97.320 C 150.105 101.495, 152.907 106.704, 152.960 105.871 C 153.021 104.919, 147.918 94, 147.413 94 C 147.171 94, 147.597 95.494, 148.360 97.320 M 313 109.249 C 272.407 113.303, 162.361 122.969, 161.324 122.571 C 160.393 122.214, 160.576 123.209, 161.928 125.860 C 162.995 127.950, 165.201 132.549, 166.830 136.080 C 173.975 151.564, 184.931 174, 185.347 174 C 185.785 174, 189.941 172.088, 213.389 161.102 C 219.378 158.296, 225.280 156, 226.504 156 C 227.729 156, 229.914 156.931, 231.360 158.069 C 234.214 160.313, 235.722 160.145, 242.250 156.851 C 245.408 155.258, 246.004 154.449, 246.022 151.730 C 246.034 149.953, 246.822 147.521, 247.772 146.324 C 248.742 145.103, 265.001 136.872, 284.845 127.557 C 304.284 118.431, 321.384 110.338, 322.845 109.573 L 325.500 108.181 323 108.341 C 321.625 108.428, 317.125 108.837, 313 109.249" stroke="none" fill="#e25447" fill-rule="evenodd"/><path d="M 269 36.649 C 252.225 44.607, 228.375 55.855, 216 61.643 C 190.526 73.558, 188.955 74.297, 169 83.747 C 161.025 87.524, 153.041 91.259, 151.259 92.047 C 148.697 93.180, 148.151 93.902, 148.654 95.490 C 150.006 99.760, 160.985 122.495, 161.832 122.777 C 162.573 123.024, 270.159 113.451, 306 109.949 C 311.775 109.385, 318.313 108.758, 320.528 108.557 C 325.332 108.120, 339 102.219, 339 100.582 C 339 99.950, 331.655 83.922, 322.677 64.966 C 313.699 46.010, 305.512 28.587, 304.484 26.250 C 303.385 23.751, 301.973 22.037, 301.058 22.089 C 300.201 22.138, 285.775 28.690, 269 36.649" stroke="none" fill="#ff7052" fill-rule="evenodd"/><path d="M 367 109.079 C 364.525 110.197, 360.250 112.183, 357.500 113.493 C 354.750 114.802, 345.300 119.233, 336.500 123.339 C 327.700 127.445, 309.925 135.829, 297 141.971 C 255.056 161.901, 253.872 162.285, 248.109 157.836 C 246.298 156.438, 245.390 156.262, 244.368 157.109 C 243.626 157.725, 241.349 158.803, 239.308 159.505 C 235.862 160.690, 235.590 161.075, 235.494 164.909 C 235.437 167.180, 234.740 169.675, 233.945 170.453 C 232.548 171.821, 219.358 178.499, 202.194 186.528 C 194.437 190.157, 193.928 190.582, 194.511 192.957 C 195.781 198.128, 197.827 200.117, 201.297 199.549 C 203.059 199.261, 211.250 198.562, 219.500 197.995 C 245.567 196.204, 274.583 194.139, 303.500 192.015 C 318.900 190.884, 340.725 189.305, 352 188.505 C 407.982 184.534, 418 183.611, 418 182.426 C 418 182.229, 417.263 180.523, 416.362 178.634 C 414.994 175.765, 414.192 175.200, 411.484 175.200 C 405.743 175.200, 404.082 173.427, 398.336 161.161 C 386.387 135.655, 384.708 132.053, 379.172 120.072 C 376.014 113.236, 372.996 107.509, 372.465 107.345 C 371.934 107.181, 369.475 107.961, 367 109.079" stroke="none" fill="#4dc1ec" fill-rule="evenodd"/><path d="M 415 175.299 C 415 176.664, 418.416 183, 419.151 183 C 419.581 183, 418.966 181.313, 417.786 179.250 C 415.249 174.820, 415 174.466, 415 175.299 M 418 202.950 C 407.825 207.742, 395.675 213.475, 391 215.691 C 386.325 217.907, 369 226.036, 352.500 233.757 C 336 241.477, 309.225 254.049, 293 261.695 C 276.775 269.341, 258.168 278.050, 251.651 281.049 C 245.135 284.047, 239.579 287.049, 239.306 287.720 C 239.033 288.391, 242.963 297.616, 248.039 308.220 C 253.115 318.824, 257.487 329.004, 257.754 330.841 C 258.324 334.759, 256.499 338.707, 253.708 339.593 C 252.623 339.937, 252.171 340.507, 252.704 340.859 C 253.237 341.212, 254.150 342.850, 254.734 344.500 C 255.318 346.150, 256.105 348.263, 256.484 349.195 C 257.070 350.639, 256.384 350.942, 251.836 351.248 C 248.901 351.444, 251 351.659, 256.500 351.725 C 262.209 351.793, 269.075 352.541, 272.500 353.467 C 280.459 355.620, 291.485 360.740, 296.677 364.694 C 298.983 366.451, 301.012 367.576, 301.185 367.194 C 301.358 366.812, 303.127 365.749, 305.116 364.830 C 308.493 363.270, 308.850 363.270, 310.531 364.830 C 311.725 365.939, 311.602 365.531, 310.165 363.615 C 305.412 357.281, 307.847 353.073, 319.439 347.586 C 380.534 318.669, 405.957 307, 407.864 307 C 409.123 307, 411.451 308.297, 413.036 309.882 L 415.917 312.763 421.139 310.344 C 424.011 309.013, 426.965 308.156, 427.704 308.440 C 428.741 308.838, 428.813 308.520, 428.023 307.043 C 426.298 303.820, 426.839 299.499, 429.250 297.242 C 430.488 296.083, 441.272 290.414, 453.216 284.644 L 474.932 274.154 466.087 255.327 C 444.618 209.627, 437.847 195.459, 437.196 194.869 C 436.813 194.523, 428.175 198.159, 418 202.950 M 246.500 408.400 C 239.159 411.636, 234.248 420.497, 235.429 428.376 C 236.280 434.049, 240.668 440.132, 245.634 442.523 C 250.373 444.805, 258.402 444.878, 262.657 442.677 C 265.746 441.080, 271 435.615, 271 434 C 271 432.014, 276.298 427.093, 279.099 426.478 C 282.047 425.831, 282.122 425.678, 281.454 421.655 C 281.074 419.370, 280.149 416.299, 279.398 414.831 C 278.177 412.445, 277.738 412.270, 275.266 413.178 C 272.246 414.289, 270.432 413.718, 263.500 409.479 C 258.934 406.687, 251.464 406.213, 246.500 408.400 M 328.310 425.500 C 328.315 428.800, 328.502 430.029, 328.725 428.232 C 328.947 426.435, 328.943 423.735, 328.715 422.232 C 328.486 420.729, 328.304 422.200, 328.310 425.500" stroke="none" fill="#8ee1ab" fill-rule="evenodd"/><path d="M 317 131 C 315.075 132.054, 313.950 132.916, 314.500 132.916 C 315.050 132.916, 317.075 132.054, 319 131 C 320.925 129.946, 322.050 129.084, 321.500 129.084 C 320.950 129.084, 318.925 129.946, 317 131 M 308.250 134.973 C 305.913 136.034, 304 137.127, 304 137.402 C 304 137.971, 311.677 134.656, 312.678 133.655 C 313.698 132.635, 312.834 132.892, 308.250 134.973 M 286 145.500 C 284.625 146.286, 283.950 146.929, 284.500 146.929 C 285.050 146.929, 286.625 146.286, 288 145.500 C 289.375 144.714, 290.050 144.071, 289.500 144.071 C 288.950 144.071, 287.375 144.714, 286 145.500 M 406.314 173.250 C 407.370 174.219, 409.623 174.949, 411.361 174.885 C 414.460 174.771, 414.453 174.761, 410.802 174.051 C 408.769 173.655, 406.498 172.920, 405.755 172.416 C 405.013 171.912, 405.264 172.287, 406.314 173.250 M 217.285 177.715 C 214.417 179.194, 212.234 180.568, 212.435 180.768 C 212.636 180.969, 215.432 179.775, 218.650 178.115 C 221.867 176.455, 224.050 175.081, 223.500 175.062 C 222.950 175.042, 220.153 176.237, 217.285 177.715 M 205.265 183.196 C 202.936 184.388, 201.205 185.538, 201.417 185.751 C 201.630 185.964, 203.986 185.003, 206.652 183.615 C 209.318 182.228, 211.050 181.078, 210.500 181.060 C 209.950 181.042, 207.594 182.003, 205.265 183.196 M 409 187.500 C 406.525 188.825, 404.950 189.910, 405.500 189.910 C 406.050 189.910, 408.525 188.825, 411 187.500 C 413.475 186.175, 415.050 185.090, 414.500 185.090 C 413.950 185.090, 411.475 186.175, 409 187.500 M 395.209 193.705 C 391.199 195.656, 388.096 197.429, 388.313 197.646 C 388.744 198.078, 404 191.020, 404 190.389 C 404 189.609, 402.358 190.228, 395.209 193.705 M 379 201.500 C 376.525 202.825, 374.950 203.910, 375.500 203.910 C 376.050 203.910, 378.525 202.825, 381 201.500 C 383.475 200.175, 385.050 199.090, 384.500 199.090 C 383.950 199.090, 381.475 200.175, 379 201.500 M 364 208.500 C 361.525 209.825, 359.950 210.910, 360.500 210.910 C 361.050 210.910, 363.525 209.825, 366 208.500 C 368.475 207.175, 370.050 206.090, 369.500 206.090 C 368.950 206.090, 366.475 207.175, 364 208.500 M 202.090 212.500 C 202.090 213.050, 203.175 215.525, 204.500 218 C 205.825 220.475, 206.910 222.050, 206.910 221.500 C 206.910 220.950, 205.825 218.475, 204.500 216 C 203.175 213.525, 202.090 211.950, 202.090 212.500 M 331 224 C 329.075 225.054, 327.783 225.935, 328.128 225.958 C 329.163 226.027, 336 223.012, 336 222.487 C 336 221.614, 334.563 222.049, 331 224 M 311 233.500 C 308.525 234.825, 306.950 235.910, 307.500 235.910 C 308.050 235.910, 310.525 234.825, 313 233.500 C 315.475 232.175, 317.050 231.090, 316.500 231.090 C 315.950 231.090, 313.475 232.175, 311 233.500 M 212 233.250 C 212 234.352, 215.929 243, 216.429 243 C 216.704 243, 216.017 240.872, 214.902 238.270 C 212.928 233.667, 212 232.061, 212 233.250 M 299 239 C 297.075 240.054, 295.950 240.916, 296.500 240.916 C 297.050 240.916, 299.075 240.054, 301 239 C 302.925 237.946, 304.050 237.084, 303.500 237.084 C 302.950 237.084, 300.925 237.946, 299 239 M 283 246.500 C 281.625 247.286, 280.950 247.929, 281.500 247.929 C 282.050 247.929, 283.625 247.286, 285 246.500 C 286.375 245.714, 287.050 245.071, 286.500 245.071 C 285.950 245.071, 284.375 245.714, 283 246.500 M 219.071 248.500 C 219.071 249.050, 219.714 250.625, 220.500 252 C 221.286 253.375, 221.929 254.050, 221.929 253.500 C 221.929 252.950, 221.286 251.375, 220.500 250 C 219.714 248.625, 219.071 247.950, 219.071 248.500 M 224.090 259.500 C 224.090 260.050, 225.175 262.525, 226.500 265 C 227.825 267.475, 228.910 269.050, 228.910 268.500 C 228.910 267.950, 227.825 265.475, 226.500 263 C 225.175 260.525, 224.090 258.950, 224.090 259.500 M 246 264 C 244.075 265.054, 242.950 265.916, 243.500 265.916 C 244.050 265.916, 246.075 265.054, 248 264 C 249.925 262.946, 251.050 262.084, 250.500 262.084 C 249.950 262.084, 247.925 262.946, 246 264 M 232.742 270.085 C 231.775 270.648, 230.425 270.793, 229.742 270.407 C 228.803 269.877, 228.778 270.008, 229.640 270.943 C 230.541 271.921, 231.377 271.856, 233.640 270.630 C 235.213 269.777, 236.050 269.076, 235.500 269.070 C 234.950 269.065, 233.709 269.521, 232.742 270.085 M 245.500 369.582 C 244.400 369.848, 241.475 370.565, 239 371.176 C 227.134 374.106, 214.322 383.650, 206.562 395.340 C 200.906 403.861, 198.782 410.932, 198.251 423 C 197.462 440.925, 202.111 453.097, 214.495 465.536 C 238.753 489.903, 278.645 486.978, 299.820 459.280 C 311.784 443.629, 314.039 420.125, 305.361 401.500 C 298.926 387.689, 285.543 376.211, 270.297 371.428 C 265.441 369.904, 249.175 368.693, 245.500 369.582 M 240.538 392.023 C 231.865 395.722, 225.230 402.059, 220.969 410.714 C 217.994 416.757, 217.832 417.660, 218.176 426.314 C 218.473 433.809, 219.068 436.650, 221.406 441.747 C 224.817 449.186, 230.841 455.097, 238.825 458.840 C 243.784 461.164, 245.761 461.500, 254.500 461.500 C 263.575 461.500, 265.035 461.229, 270.281 458.571 C 279.961 453.666, 288.919 442.232, 288.978 434.705 C 288.998 432.110, 285.240 427.010, 283.295 426.993 C 282.858 426.989, 282.410 424.985, 282.300 422.540 C 282.190 420.094, 281.388 416.718, 280.519 415.037 C 279.354 412.783, 279.210 411.477, 279.970 410.057 C 280.536 408.998, 281 406.306, 281 404.075 C 281 400.395, 280.560 399.695, 276.250 396.514 C 265.730 388.751, 252.200 387.050, 240.538 392.023" stroke="none" fill="#3f5e72" fill-rule="evenodd"/><path d="M 274.928 14.608 C 258.193 22.614, 238.200 32.009, 230.500 35.487 C 222.800 38.965, 209.750 45.045, 201.500 49 C 193.250 52.955, 173.900 62.029, 158.500 69.164 C 143.100 76.300, 129.713 83.057, 128.750 84.180 C 125.211 88.309, 124.618 86.796, 154.087 148.844 C 156.789 154.534, 159 159.366, 159 159.583 C 159 159.937, 166.781 176.469, 182.728 210 C 192.686 230.938, 195.239 236.394, 200.516 248 C 213.067 275.604, 242.304 336.654, 243.738 338.250 C 246.081 340.859, 252.134 340.551, 254.826 337.686 C 258.815 333.440, 258.081 330.887, 245.005 303.500 C 241.065 295.250, 237.765 288.171, 237.671 287.769 C 237.519 287.118, 265.735 273.417, 299.500 257.747 C 320.018 248.225, 328.060 244.447, 341.500 238.016 C 352.182 232.905, 382.546 218.632, 390.500 214.982 C 391.600 214.478, 402.590 209.328, 414.923 203.539 C 427.256 197.750, 437.441 193.123, 437.556 193.257 C 438.269 194.085, 445.850 209.912, 452.281 224 C 459.213 239.183, 466.782 255.312, 473.375 268.946 C 474.823 271.941, 475.669 274.687, 475.254 275.049 C 474.839 275.410, 469.100 278.209, 462.500 281.269 C 455.900 284.328, 446.039 288.909, 440.586 291.449 C 435.133 293.989, 430.085 296.840, 429.367 297.784 C 428.650 298.728, 428.049 301.155, 428.032 303.177 C 427.991 307.931, 431.956 311.441, 436.500 310.675 C 439.192 310.220, 474.529 294.331, 487.714 287.646 C 493.262 284.834, 495 282.676, 495 278.605 C 495 277.215, 490.558 266.723, 485.129 255.289 C 479.700 243.855, 474.031 231.800, 472.532 228.500 C 459.381 199.550, 448.480 177.201, 446.802 175.750 C 442.676 172.182, 441.670 172.519, 408 188.759 C 400.025 192.605, 388.100 198.229, 381.500 201.256 C 367.953 207.470, 358.043 212.102, 343.500 219.018 C 325.361 227.645, 313.734 233.097, 294.500 241.997 C 284.050 246.832, 270.100 253.372, 263.500 256.529 C 245.520 265.131, 230.775 272, 230.292 272 C 230.057 272, 227.833 267.613, 225.351 262.250 C 222.869 256.887, 219.342 249.350, 217.514 245.500 C 197.710 203.789, 191.855 190.757, 192.612 190.071 C 194.054 188.764, 211.186 180.368, 225.296 174.054 C 232.028 171.042, 234 168.781, 234 164.073 C 234 161.021, 233.413 159.683, 231.365 158.073 C 229.916 156.933, 227.728 156, 226.502 156 C 225.277 156, 215.650 160.050, 205.110 165 C 185.834 174.052, 184 174.756, 184 173.095 C 184 172.597, 180.805 165.510, 176.900 157.345 C 172.995 149.180, 168.540 139.800, 167 136.500 C 165.460 133.200, 160.330 122.456, 155.600 112.625 C 150.870 102.794, 147 94.424, 147 94.026 C 147 93.628, 151.387 91.260, 156.750 88.763 C 162.112 86.266, 189.675 73.317, 218 59.987 C 298.239 22.225, 301.149 20.883, 302.111 21.204 C 302.609 21.370, 309.228 34.779, 316.819 51.003 C 324.411 67.226, 332.807 85.128, 335.478 90.783 C 338.346 96.858, 339.958 101.412, 339.417 101.911 C 338.912 102.376, 334.450 104.565, 329.500 106.776 C 298.930 120.431, 249.240 144.476, 247.772 146.324 C 244.250 150.759, 246.550 156.649, 252.750 159.071 C 255.418 160.114, 255.678 160.021, 272.500 151.998 C 279.650 148.587, 289.325 144.035, 294 141.880 C 298.675 139.726, 303.249 137.542, 304.163 137.028 C 305.078 136.513, 312.728 132.964, 321.163 129.143 C 329.599 125.321, 340.648 120.126, 345.717 117.597 C 350.787 115.069, 355.179 113, 355.478 113 C 355.776 113, 359.728 111.169, 364.259 108.932 C 372.471 104.877, 372.502 104.870, 373.892 106.964 C 375.321 109.117, 386.994 133.511, 400.544 162.662 C 404.880 171.991, 406.821 174, 411.500 174 C 415.392 174, 417.655 172.429, 418.897 168.866 C 420.184 165.173, 422.147 169.906, 399.456 122 C 390.729 103.575, 382.894 87.952, 382.044 87.282 C 379.217 85.051, 374.127 85.914, 366 90 C 361.624 92.200, 357.472 93.994, 356.772 93.987 C 356.072 93.980, 351 84.212, 345.500 72.281 C 328.090 34.511, 314.286 5.853, 312.361 3.482 C 308.527 -1.241, 307.289 -0.873, 274.928 14.608 M 7.635 22.073 C 4.125 24.834, 3.957 30.671, 7.296 33.809 C 9.513 35.891, 10.514 35.975, 36.030 36.233 L 62.467 36.500 71.714 56.500 C 84.013 83.099, 87.938 91.482, 100.279 117.500 C 110.490 139.026, 113.446 145.344, 118.993 157.500 C 120.499 160.800, 129.609 180.150, 139.239 200.500 C 148.868 220.850, 161.255 247.175, 166.766 259 C 172.276 270.825, 182.492 292.650, 189.468 307.500 C 213.483 358.623, 215 361.905, 215 362.735 C 215 363.194, 213.709 364.331, 212.132 365.263 C 199.731 372.588, 187.307 390.658, 182.945 407.714 C 180.780 416.181, 180.325 433.280, 182.060 441 C 186.791 462.050, 202.005 481.935, 220.522 491.270 C 259.807 511.077, 307.213 492.954, 322.869 452.144 C 328.309 437.963, 329.346 420.940, 325.605 407.219 L 324.165 401.938 333.832 397.373 C 339.150 394.862, 351.600 389.074, 361.500 384.511 C 371.400 379.948, 390.075 371.166, 403 364.996 C 436.891 348.818, 441.082 346.933, 441.959 347.475 C 442.392 347.742, 444.427 351.907, 446.482 356.730 C 448.538 361.554, 451.148 366.512, 452.284 367.750 C 454.917 370.620, 459.842 370.698, 463.365 367.927 C 466.626 365.363, 466.873 360.632, 464.038 355.074 C 462.958 352.958, 460.948 348.678, 459.570 345.562 L 457.064 339.896 467.555 334.835 C 478.600 329.505, 481 327.345, 481 322.732 C 481 319.109, 476.960 315, 473.398 315 C 470.588 315, 457.572 320.870, 398.117 348.947 C 378.528 358.199, 359.152 367.283, 355.059 369.134 C 350.967 370.985, 340.842 375.741, 332.559 379.703 L 317.500 386.905 315 383.710 C 303.092 368.491, 290.331 359.645, 273.299 354.804 C 267.271 353.091, 262.888 352.590, 254 352.599 C 244.013 352.609, 240.632 353.065, 231.884 355.584 C 230.721 355.919, 229.688 354.710, 228.202 351.275 C 227.066 348.649, 223.456 340.875, 220.179 334 C 216.903 327.125, 213.562 319.925, 212.755 318 C 211.949 316.075, 203.852 298.750, 194.764 279.500 C 178.065 244.132, 170.020 227.017, 136.005 154.500 C 125.685 132.500, 114.664 109.100, 111.513 102.500 C 104.165 87.111, 93.678 64.651, 87 50 C 79.067 32.596, 73.920 22.668, 72.121 21.298 C 70.921 20.384, 62.688 20.055, 40.385 20.032 C 11.407 20.001, 10.170 20.078, 7.635 22.073 M 397 312.074 C 392.325 314.328, 384.225 318.113, 379 320.484 C 343.107 336.777, 313.203 351.385, 311.250 353.581 C 308.141 357.077, 308.400 360.554, 312.040 364.194 C 314.466 366.620, 315.657 367.119, 317.935 366.663 C 319.506 366.349, 333.658 359.996, 349.385 352.546 C 365.112 345.096, 378.183 339, 378.432 339 C 378.682 339, 386.702 335.247, 396.256 330.659 C 411.047 323.556, 413.808 321.877, 414.858 319.343 C 416.197 316.110, 415.332 312.351, 412.759 310.215 C 409.427 307.450, 405.670 307.893, 397 312.074 M 245.500 369.582 C 244.400 369.848, 241.475 370.565, 239 371.176 C 227.134 374.106, 214.322 383.650, 206.562 395.340 C 200.906 403.861, 198.782 410.932, 198.251 423 C 197.462 440.925, 202.111 453.097, 214.495 465.536 C 238.753 489.903, 278.645 486.978, 299.820 459.280 C 311.784 443.629, 314.039 420.125, 305.361 401.500 C 298.926 387.689, 285.543 376.211, 270.297 371.428 C 265.441 369.904, 249.175 368.693, 245.500 369.582 M 240.538 392.023 C 231.865 395.722, 225.230 402.059, 220.969 410.714 C 217.994 416.757, 217.832 417.660, 218.176 426.314 C 218.473 433.809, 219.068 436.650, 221.406 441.747 C 224.817 449.186, 230.841 455.097, 238.825 458.840 C 243.784 461.164, 245.761 461.500, 254.500 461.500 C 263.575 461.500, 265.035 461.229, 270.281 458.571 C 279.961 453.666, 288.919 442.232, 288.978 434.705 C 289.009 430.763, 284.976 427, 280.720 427 C 277.084 427, 274.380 429.250, 271.706 434.500 C 269.735 438.370, 265.258 442.586, 261.685 443.936 C 260.137 444.521, 256.576 445, 253.773 445 C 237.319 445, 228.557 424.676, 239.814 412.624 C 247.123 404.799, 257.853 404.071, 266.764 410.796 C 269.445 412.819, 270.781 413.159, 274.229 412.696 C 279.344 412.010, 281 409.961, 281 404.319 C 281 400.348, 280.637 399.751, 276.250 396.514 C 265.730 388.751, 252.200 387.050, 240.538 392.023" stroke="none" fill="#434243" fill-rule="evenodd"/><path d="M 25.812 19.748 C 34.233 19.916, 47.733 19.915, 55.812 19.748 C 63.890 19.580, 57 19.443, 40.500 19.443 C 24 19.444, 17.390 19.581, 25.812 19.748 M 250 25.500 C 247.525 26.825, 245.950 27.910, 246.500 27.910 C 247.050 27.910, 249.525 26.825, 252 25.500 C 254.475 24.175, 256.050 23.090, 255.500 23.090 C 254.950 23.090, 252.475 24.175, 250 25.500 M 19.500 36.701 C 41.870 37.411, 62.772 37.435, 62.347 36.750 C 62.091 36.337, 50.321 36.093, 36.191 36.208 C 22.061 36.322, 14.550 36.544, 19.500 36.701 M 347.071 75.500 C 347.071 76.050, 347.714 77.625, 348.500 79 C 349.286 80.375, 349.929 81.050, 349.929 80.500 C 349.929 79.950, 349.286 78.375, 348.500 77 C 347.714 75.625, 347.071 74.950, 347.071 75.500 M 388.071 97.500 C 388.071 98.050, 388.714 99.625, 389.500 101 C 390.286 102.375, 390.929 103.050, 390.929 102.500 C 390.929 101.950, 390.286 100.375, 389.500 99 C 388.714 97.625, 388.071 96.950, 388.071 97.500 M 103.071 124.500 C 103.071 125.050, 103.714 126.625, 104.500 128 C 105.286 129.375, 105.929 130.050, 105.929 129.500 C 105.929 128.950, 105.286 127.375, 104.500 126 C 103.714 124.625, 103.071 123.950, 103.071 124.500 M 155.071 152.500 C 155.071 153.050, 155.714 154.625, 156.500 156 C 157.286 157.375, 157.929 158.050, 157.929 157.500 C 157.929 156.950, 157.286 155.375, 156.500 154 C 155.714 152.625, 155.071 151.950, 155.071 152.500 M 445.071 210.500 C 445.071 211.050, 445.714 212.625, 446.500 214 C 447.286 215.375, 447.929 216.050, 447.929 215.500 C 447.929 214.950, 447.286 213.375, 446.500 212 C 445.714 210.625, 445.071 209.950, 445.071 210.500 M 187.071 220.500 C 187.071 221.050, 187.714 222.625, 188.500 224 C 189.286 225.375, 189.929 226.050, 189.929 225.500 C 189.929 224.950, 189.286 223.375, 188.500 222 C 187.714 220.625, 187.071 219.950, 187.071 220.500 M 366 226.500 C 364.625 227.286, 363.950 227.929, 364.500 227.929 C 365.050 227.929, 366.625 227.286, 368 226.500 C 369.375 225.714, 370.050 225.071, 369.500 225.071 C 368.950 225.071, 367.375 225.714, 366 226.500 M 268 272.500 C 265.525 273.825, 263.950 274.910, 264.500 274.910 C 265.050 274.910, 267.525 273.825, 270 272.500 C 272.475 271.175, 274.050 270.090, 273.500 270.090 C 272.950 270.090, 270.475 271.175, 268 272.500 M 460 300.500 C 458.625 301.286, 457.950 301.929, 458.500 301.929 C 459.050 301.929, 460.625 301.286, 462 300.500 C 463.375 299.714, 464.050 299.071, 463.500 299.071 C 462.950 299.071, 461.375 299.714, 460 300.500 M 395 312 C 393.075 313.054, 391.950 313.916, 392.500 313.916 C 393.050 313.916, 395.075 313.054, 397 312 C 398.925 310.946, 400.050 310.084, 399.500 310.084 C 398.950 310.084, 396.925 310.946, 395 312 M 233.084 318.500 C 233.084 319.050, 233.946 321.075, 235 323 C 236.054 324.925, 236.916 326.050, 236.916 325.500 C 236.916 324.950, 236.054 322.925, 235 321 C 233.946 319.075, 233.084 317.950, 233.084 318.500 M 457 320.500 C 455.625 321.286, 454.950 321.929, 455.500 321.929 C 456.050 321.929, 457.625 321.286, 459 320.500 C 460.375 319.714, 461.050 319.071, 460.500 319.071 C 459.950 319.071, 458.375 319.714, 457 320.500 M 360 347.500 C 358.625 348.286, 357.950 348.929, 358.500 348.929 C 359.050 348.929, 360.625 348.286, 362 347.500 C 363.375 346.714, 364.050 346.071, 363.500 346.071 C 362.950 346.071, 361.375 346.714, 360 347.500 M 439 348.081 C 437.813 348.912, 437.953 349.004, 439.669 348.524 C 441.303 348.066, 442.004 348.439, 442.511 350.034 C 442.880 351.198, 443.403 351.930, 443.672 351.661 C 444.299 351.034, 442.163 346.995, 441.215 347.015 C 440.822 347.024, 439.825 347.503, 439 348.081 M 374 359.500 C 372.625 360.286, 371.950 360.929, 372.500 360.929 C 373.050 360.929, 374.625 360.286, 376 359.500 C 377.375 358.714, 378.050 358.071, 377.500 358.071 C 376.950 358.071, 375.375 358.714, 374 359.500 M 305.500 373 C 308.209 375.750, 310.650 378, 310.925 378 C 311.200 378, 309.209 375.750, 306.500 373 C 303.791 370.250, 301.350 368, 301.075 368 C 300.800 368, 302.791 370.250, 305.500 373 M 201.437 373.250 L 198.500 376.500 201.750 373.563 C 203.537 371.948, 205 370.485, 205 370.313 C 205 369.540, 204.175 370.221, 201.437 373.250 M 252.250 406.689 C 253.213 406.941, 254.787 406.941, 255.750 406.689 C 256.712 406.438, 255.925 406.232, 254 406.232 C 252.075 406.232, 251.287 406.438, 252.250 406.689 M 280.610 417.500 C 281.433 421.177, 282.005 421.975, 281.985 419.417 C 281.976 418.363, 281.513 416.825, 280.954 416 C 280.213 414.905, 280.120 415.309, 280.610 417.500 M 180.232 420 C 180.232 421.925, 180.438 422.712, 180.689 421.750 C 180.941 420.788, 180.941 419.212, 180.689 418.250 C 180.438 417.288, 180.232 418.075, 180.232 420 M 282.079 423.677 C 282.036 424.874, 281.212 426.059, 280.250 426.311 C 278.610 426.739, 278.612 426.775, 280.281 426.884 C 282.221 427.010, 283.494 424.827, 282.673 422.783 C 282.390 422.077, 282.122 422.480, 282.079 423.677 M 180.232 431 C 180.232 432.925, 180.438 433.712, 180.689 432.750 C 180.941 431.788, 180.941 430.212, 180.689 429.250 C 180.438 428.288, 180.232 429.075, 180.232 431 M 271.500 433 C 270.647 434.650, 270.174 436, 270.449 436 C 270.724 436, 271.647 434.650, 272.500 433 C 273.353 431.350, 273.826 430, 273.551 430 C 273.276 430, 272.353 431.350, 271.500 433 M 201 477.500 C 203.987 480.525, 206.657 483, 206.932 483 C 207.207 483, 204.987 480.525, 202 477.500 C 199.013 474.475, 196.343 472, 196.068 472 C 195.793 472, 198.013 474.475, 201 477.500" stroke="none" fill="#577265" fill-rule="evenodd"/></svg>